<svg width="82" height="64" viewBox="0 0 82 64" fill="none" xmlns="http://www.w3.org/2000/svg">
<path d="M18.5156 64C13.3182 64 8.93296 62.2087 5.35977 58.626C1.78659 54.8804 0 49.5878 0 42.7481C0 33.7914 2.27384 25.5674 6.82153 18.0763C11.3692 10.4224 17.2162 4.39694 24.3626 0L31.4278 3.66412C28.5042 6.26971 25.5807 10.0153 22.6572 14.9008C19.7337 19.7863 18.1095 24.9975 17.7847 30.5344C22.6572 30.86 26.7177 32.4885 29.966 35.4198C33.2144 38.3511 34.8385 42.0967 34.8385 46.6565C34.8385 51.8677 33.2144 56.1018 29.966 59.3588C26.8801 62.4529 23.0633 64 18.5156 64ZM65.4334 64C60.3985 64 56.0944 62.2087 52.5212 58.626C48.9481 54.8804 47.1615 49.5878 47.1615 42.7481C47.1615 33.7914 49.3541 25.5674 53.7394 18.0763C58.2871 10.4224 64.1341 4.39694 71.2804 0L78.3456 3.66412C70.0623 11.1552 65.5958 20.112 64.9462 30.5344C69.6563 30.86 73.6355 32.4885 76.8839 35.4198C80.2946 38.3511 82 42.0967 82 46.6565C82 51.8677 80.3758 56.1018 77.1275 59.3588C73.8791 62.4529 69.9811 64 65.4334 64Z" fill="#EDEDED"/>
</svg>
