<svg width="40" height="40" viewBox="0 0 40 40" fill="none" xmlns="http://www.w3.org/2000/svg">
<path d="M36.6667 25C36.6667 28.0942 35.4375 31.0617 33.2496 33.2496C31.0617 35.4375 28.0942 36.6667 25 36.6667L26.75 33.75" stroke="#0171FF" stroke-width="3" stroke-linecap="round" stroke-linejoin="round"/>
<path d="M3.33334 15C3.33334 11.9058 4.56251 8.93839 6.75043 6.75046C8.93836 4.56254 11.9058 3.33337 15 3.33337L13.25 6.25004" stroke="#0171FF" stroke-width="3" stroke-linecap="round" stroke-linejoin="round"/>
<path d="M38.3333 10.8334C38.3333 12.3167 37.8935 13.7668 37.0694 15.0002C36.2453 16.2335 35.0739 17.1948 33.7035 17.7625C32.333 18.3301 30.825 18.4787 29.3702 18.1893C27.9153 17.8999 26.5789 17.1856 25.53 16.1367C24.4812 15.0878 23.7668 13.7514 23.4775 12.2966C23.1881 10.8417 23.3366 9.33369 23.9043 7.96325C24.4719 6.5928 25.4332 5.42146 26.6666 4.59735C27.8999 3.77324 29.35 3.33337 30.8333 3.33337C32.8225 3.33337 34.7301 4.12355 36.1366 5.53007C37.5432 6.9366 38.3333 8.84425 38.3333 10.8334V10.8334Z" stroke="#0171FF" stroke-width="3" stroke-linecap="round" stroke-linejoin="round"/>
<path d="M17.3333 29.8334C17.3333 31.3167 16.8934 32.7668 16.0693 34.0002C15.2452 35.2335 14.0739 36.1948 12.7034 36.7625C11.333 37.3301 9.825 37.4787 8.37014 37.1893C6.91528 36.8999 5.57891 36.1856 4.53002 35.1367C3.48112 34.0878 2.76682 32.7514 2.47743 31.2966C2.18804 29.8417 2.33656 28.3337 2.90422 26.9632C3.47188 25.5928 4.43317 24.4215 5.66654 23.5974C6.89991 22.7732 8.34996 22.3334 9.83332 22.3334C11.8224 22.3334 13.7301 23.1236 15.1366 24.5301C16.5431 25.9366 17.3333 27.8442 17.3333 29.8334V29.8334Z" stroke="#0171FF" stroke-width="3" stroke-linecap="round" stroke-linejoin="round"/>
</svg>
