<svg width="40" height="40" viewBox="0 0 40 40" fill="none" xmlns="http://www.w3.org/2000/svg">
<path d="M25 7C25 9.76142 22.7614 12 20 12C17.2386 12 15 9.76142 15 7C15 4.23858 17.2386 2 20 2C22.7614 2 25 4.23858 25 7Z" stroke="#0171FF" stroke-width="3"/>
<path d="M12 29C12 31.7614 9.76142 34 7 34C4.23858 34 2 31.7614 2 29C2 26.2386 4.23858 24 7 24C9.76142 24 12 26.2386 12 29Z" stroke="#0171FF" stroke-width="3"/>
<path d="M38 29C38 31.7614 35.7614 34 33 34C30.2386 34 28 31.7614 28 29C28 26.2386 30.2386 24 33 24C35.7614 24 38 26.2386 38 29Z" stroke="#0171FF" stroke-width="3"/>
<path fill-rule="evenodd" clip-rule="evenodd" d="M24.4636 9.25534C24.8067 8.57772 25 7.81141 25 6.99996C25 6.74634 24.9811 6.49713 24.9447 6.25366C31.6417 8.35455 36.5 14.6099 36.5 22C36.5 23.0795 36.3963 24.1349 36.1984 25.1566C35.4156 24.5045 34.4305 24.087 33.3511 24.0121C33.4492 23.3556 33.5 22.6837 33.5 22C33.5 16.1084 29.726 11.0983 24.4636 9.25534ZM15.5364 9.25534C15.1933 8.57772 15 7.81141 15 6.99996C15 6.74634 15.0189 6.49713 15.0553 6.25366C8.35835 8.35455 3.5 14.6099 3.5 22C3.5 23.0795 3.60368 24.1349 3.80162 25.1566C4.58439 24.5045 5.56949 24.087 6.64893 24.0121C6.55084 23.3556 6.5 22.6837 6.5 22C6.5 16.1084 10.274 11.0983 15.5364 9.25534ZM10.972 32.0373C10.3434 32.8582 9.46597 33.4785 8.45246 33.7857C11.4284 36.7019 15.5042 38.5 20 38.5C24.4958 38.5 28.5716 36.7019 31.5475 33.7857C30.534 33.4785 29.6566 32.8582 29.028 32.0373C26.6362 34.1899 23.4711 35.5 20 35.5C16.5289 35.5 13.3637 34.1899 10.972 32.0373Z" fill="#0171FF"/>
</svg>
