<svg width="40" height="40" viewBox="0 0 40 40" fill="none" xmlns="http://www.w3.org/2000/svg">
<path d="M33.3333 13.7499V29.9999C33.3333 34.9999 30.35 36.6666 26.6666 36.6666H13.3333C9.64996 36.6666 6.66663 34.9999 6.66663 29.9999V13.7499C6.66663 8.33325 9.64996 7.08325 13.3333 7.08325C13.3325 7.57572 13.4294 8.06346 13.6182 8.51831C13.807 8.97315 14.084 9.38608 14.4333 9.73325C14.7805 10.0825 15.1934 10.3596 15.6482 10.5484C16.1031 10.7372 16.5908 10.834 17.0833 10.8333H22.9166C23.9108 10.8319 24.8638 10.4364 25.5668 9.73344C26.2698 9.03047 26.6653 8.07741 26.6666 7.08325C30.35 7.08325 33.3333 8.33325 33.3333 13.7499Z" stroke="#0171FF" stroke-width="3" stroke-linecap="round" stroke-linejoin="round"/>
<path d="M26.6667 7.08325C26.6654 8.07741 26.2699 9.03047 25.5669 9.73344C24.8639 10.4364 23.9109 10.8319 22.9167 10.8333H17.0834C16.0888 10.8333 15.135 10.4382 14.4317 9.7349C13.7285 9.03164 13.3334 8.07781 13.3334 7.08325C13.3334 6.08869 13.7285 5.13486 14.4317 4.4316C15.135 3.72834 16.0888 3.33325 17.0834 3.33325L22.9167 3.33325C23.9109 3.33457 24.8639 3.73009 25.5669 4.43306C26.2699 5.13604 26.6654 6.0891 26.6667 7.08325V7.08325Z" stroke="#0171FF" stroke-width="3" stroke-linecap="round" stroke-linejoin="round"/>
<path d="M13.3334 21.6667H20" stroke="#0171FF" stroke-width="3" stroke-linecap="round" stroke-linejoin="round"/>
<path d="M13.3334 28.3333H26.6667" stroke="#0171FF" stroke-width="3" stroke-linecap="round" stroke-linejoin="round"/>
</svg>
